<svg width="24" height="24" viewBox="0 0 24 24" fill="none" xmlns="http://www.w3.org/2000/svg">
<path fill-rule="evenodd" clip-rule="evenodd" d="M11.9999 2.83334C12.3171 2.83334 12.6068 3.0134 12.7472 3.29782L15.1285 8.12206L20.4538 8.90043C20.7676 8.9463 21.0282 9.1663 21.126 9.46798C21.2238 9.76965 21.1419 10.1007 20.9147 10.322L17.062 14.0745L17.9713 19.3758C18.0249 19.6885 17.8964 20.0044 17.6397 20.1909C17.3831 20.3773 17.0428 20.4019 16.7621 20.2542L11.9999 17.7499L7.23782 20.2542C6.95706 20.4019 6.61681 20.3773 6.36016 20.1909C6.10352 20.0044 5.97498 19.6885 6.0286 19.3758L6.93784 14.0745L3.08517 10.322C2.85798 10.1007 2.77609 9.76965 2.8739 9.46798C2.97172 9.1663 3.23229 8.9463 3.54609 8.90043L8.87139 8.12206L11.2527 3.29782C11.3931 3.0134 11.6828 2.83334 11.9999 2.83334ZM11.9999 5.54938L10.1722 9.25219C10.0509 9.4979 9.81659 9.66828 9.54547 9.70791L5.45695 10.3055L8.41472 13.1864C8.61128 13.3778 8.701 13.6538 8.65462 13.9242L7.95676 17.9931L11.6121 16.0708C11.8549 15.9431 12.145 15.9431 12.3878 16.0708L16.0431 17.9931L15.3453 13.9242C15.2989 13.6538 15.3886 13.3778 15.5852 13.1864L18.5429 10.3055L14.4544 9.70791C14.1833 9.66828 13.949 9.4979 13.8277 9.25219L11.9999 5.54938Z" fill="#151515"/>
</svg>
